<?xml version="1.0" encoding="utf-8"?>
<!-- Generator: Adobe Illustrator 25.3.1, SVG Export Plug-In . SVG Version: 6.00 Build 0)  -->
<svg version="1.1" xmlns="http://www.w3.org/2000/svg" xmlns:xlink="http://www.w3.org/1999/xlink" x="0px" y="0px"
	 viewBox="0 0 595.28 595.28" style="enable-background:new 0 0 595.28 595.28;" xml:space="preserve">
<style type="text/css">
	.st0{fill:#0E1921;}
</style>
<g id="Layer_1">
	<g>
		<g>
			<path class="st0" d="M432.47,141.38c-0.83-0.29-1.66-0.57-2.49-0.83c-0.14-0.05-0.27-0.1-0.42-0.16
				c-10.65-3.89-20.66-4.36-29-3.56v0.04c-1.94,0.17-3.88,0.39-5.84,0.69c-2.62,0.41-5.18,0.94-7.69,1.56l-0.04-0.01
				c-0.17,0.05-0.32,0.11-0.49,0.16c-4.33,1.09-8.49,2.5-12.49,4.21c-0.05-0.06-0.08-0.11-0.08-0.11
				c-6.51,2.75-12.61,6.43-18.39,10.75c-2.43,1.75-4.64,3.55-6.67,5.39c-11.84,10.33-22.35,23.43-32.3,37.48l-46.7,68.55l-0.16-0.16
				l-4.47-4.47c0,0-0.01,0.01-0.01,0.01l-27.63-27.48c-2.74-2.72-6.44-4.25-10.3-4.25c-13.02,0-19.53,15.76-10.31,24.95l22.06,21.97
				l0,0l0.8,0.8l32.66,32.6l0.02-0.03l0.03,0.03l62.44-90.53c10.3-16.14,20.94-31.39,34.89-42.2c5.78-4.48,12.11-8.24,19.25-10.93
				c4.58-1.48,9.36-2.33,14.33-2.61c13.48-0.62,25.82,3.62,36.76,11.81c3.59,2.69,6.72,5.68,9.48,8.92v-0.08l0,0v0l18.76-18.76
				C458.84,154,445.46,145.93,432.47,141.38z"/>
			<g>
				<path class="st0" d="M237.24,280.67c-0.54,0.15-1.07,0.29-1.6,0.4c-5.17,1.39-9.67,1.8-15,1.8c-10.42,0-20.34-2.74-28.69-7.93
					l-0.51-0.32c-13.41-8.47-15.25-15.13-18.79-21.48l-0.27-0.58c-9.1-19.28-7.4-42.87,4.33-60.09
					c10.43-15.31,27.29-24.22,46.24-24.27c39.95,0.53,68.25,46.14,73.29,50.6l14.51-21.29c-11.59-14.82-45.82-61.37-94.79-61.37
					c-12.71,0-25.58,2.78-37.21,8.03c-12.23,5.52-22.73,13.47-31.21,23.62c-24.47,29.29-27.62,73.36-7.67,107.16
					c1.12,1.89,2.36,3.81,3.71,5.71l0.23,0.32c3.93,4.85,10.67,14.08,19.92,19.54l0.3,0.2c13.85,9.38,30.4,14.34,47.88,14.34
					c5.73,0,11.5-0.55,17.17-1.63c11.63-2.22,20.57-5.45,28.96-10.05c0.41-0.21,0.83-0.45,1.27-0.69L237.24,280.67z"/>
				<path class="st0" d="M450.65,270.25L450.65,270.25l0-0.07v0c-0.65,0.77-1.33,1.52-2.03,2.26c-1.4,1.48-2.89,2.89-4.49,4.24
					c-0.8,0.67-1.62,1.33-2.48,1.97c-11.3,8.46-24.16,11.89-38.28,10.38c-9.43-1.08-15.33-4.81-19.02-7.84
					c-3.35-2.93-6.49-5.87-9.3-8.66l-0.03-0.03c-3.63-3.34-7.18-7.11-10.67-11.05c0,0-14.74-17.88-29.02-34.99l-15.03,21.79
					l1.29,1.58l6.29,7.71v0l22.24,27.23c0.01,0.01,0.01,0.01,0.02,0.02c1.57,1.64,3.22,3.29,4.98,4.93
					c0.08,0.07,0.15,0.14,0.23,0.21c1.31,1.21,2.69,2.41,4.11,3.6c4.99,4.56,10.13,8.65,15.58,12.05c6.99,4.37,13.96,7.07,20.79,8.1
					c3.39,0.71,7.31,1.31,11.61,1.5c7.17,0.32,15.4-0.46,24.08-3.63c0.14-0.05,0.26-0.1,0.4-0.15c0.79-0.25,1.58-0.51,2.37-0.79
					c12.33-4.32,25.04-11.98,34.17-22.55L450.65,270.25L450.65,270.25z"/>
			</g>
		</g>
		<polygon class="st0" points="319.59,315.28 292.65,288.34 283.32,301.87 276.29,312.07 275.79,312.78 278.34,315.33 
			313.57,315.33 313.53,315.28 		"/>
	</g>
</g>
<g id="Layer_2">
	<g>
		<g>
			<path class="st0" d="M504.71,426.17c0-9.93-2.79-17.99-8.28-23.95c-5.51-5.97-12.95-9-22.09-9c-8.83,0-16.18,3.28-21.85,9.76
				c-5.65,6.45-8.51,14.25-8.51,23.2c0,9.45,2.95,17.38,8.78,23.59c5.84,6.22,13.52,9.37,22.82,9.37c6.7,0,12.45-1.65,17.09-4.89
				c4.62-3.24,7.99-7.31,10.01-12.11l0.31-0.73l-11.57-4.8l-0.3,0.73c-2.77,6.64-7.93,9.87-15.78,9.87c-4.43,0-8.38-1.49-11.78-4.39
				l0,0c-0.03-0.02-0.13-0.12-0.27-0.24c-0.18-0.16-0.36-0.3-0.53-0.46c-3.29-3.11-5.21-7.33-5.74-12.55
				c-0.29-2.14-0.34-4.53-0.02-7.19c0.19-1.56,0.52-2.96,0.93-4.26h-0.03c0.04-0.12,0.09-0.22,0.13-0.34
				c0.08-0.23,0.16-0.44,0.25-0.66c1.18-3.33,2.98-6.11,5.45-8.21c2.92-2.49,6.42-3.76,10.39-3.76c5.5,0,9.68,1.49,12.43,4.43
				c2.53,2.72,4.02,5.58,4.44,8.53H465.4c-0.72,1.37-1.3,3.03-1.54,5.09c-0.27,2.22-0.19,4.17,0.08,5.86h40.61L504.71,426.17z"/>
			<path class="st0" d="M203,393.21v33.94c0,9.87,5.1,17.37,14.81,17.37c9.34,0,15.68-8.29,15.68-18.16v-33.15h15.06v64.99h-13.57
				l-1-8.81c-6.35,6.58-12.2,9.74-20.79,9.74c-14.69,0-25.39-11.71-25.39-31.84v-34.08H203z"/>
			<g>
				<path class="st0" d="M353.95,459.11c-8.09,0-15.17-3.23-21.03-9.61c-5.85-6.36-8.81-14.34-8.81-23.74
					c0-9.39,2.97-17.37,8.81-23.73c5.86-6.37,12.94-9.61,21.03-9.61c4.77,0,9.11,1.04,12.9,3.09c2.98,1.61,5.41,3.57,7.23,5.83
					l0.54,0.67v-7.59h12.42v62.68h-12.42v-7.59l-0.54,0.67c-1.81,2.26-4.25,4.22-7.23,5.83
					C363.06,458.07,358.72,459.11,353.95,459.11z M355.82,404.35c-5.11,0-9.56,1.97-13.23,5.84c-3.69,3.9-5.56,9.13-5.56,15.58
					c0,6.45,1.87,11.69,5.56,15.58c3.67,3.88,8.13,5.84,13.23,5.84c5.19,0,9.67-1.94,13.3-5.78c3.65-3.85,5.5-9.11,5.5-15.65
					c0-6.53-1.85-11.79-5.5-15.64C365.49,406.3,361.01,404.35,355.82,404.35z"/>
			</g>
			<g>
				<path class="st0" d="M288.39,458.72c-9.22,0-16.92-3.17-22.87-9.42c-5.95-6.24-8.97-14.16-8.97-23.53
					c0-9.37,3.02-17.28,8.97-23.53c5.96-6.25,13.65-9.42,22.87-9.42c6.87,0,12.67,1.71,17.22,5.08c4.53,3.36,7.9,7.66,10,12.78
					l0.28,0.68l-11.73,4.89l-0.28-0.68c-3.03-7.33-8.34-10.9-16.23-10.9c-4.78,0-9.06,2-12.73,5.94c-3.68,3.95-5.54,9.06-5.54,15.17
					c0,6.11,1.86,11.22,5.54,15.17c3.66,3.94,7.94,5.94,12.73,5.94c8.23,0,13.74-3.57,16.85-10.91l0.29-0.68l11.47,4.9l-0.28,0.67
					c-2.1,5.04-5.52,9.32-10.18,12.72C301.12,456.99,295.26,458.72,288.39,458.72z"/>
			</g>
			<g>
				<path class="st0" d="M425.89,459.11c-6.51,0-11.57-1.78-15.03-5.28c-3.46-3.5-5.21-8.49-5.21-14.84v-30.99h-10.61v-11.84h10.61
					v-18.52h12.83v18.52h14.81v11.84h-14.81v30.12c0,6.15,2.42,9.14,7.41,9.14c1.94,0,3.58-0.31,4.87-0.92l0.7-0.33l4.51,11.14
					l-0.66,0.28C432.77,458.55,429.59,459.11,425.89,459.11z"/>
			</g>
			<path class="st0" d="M187.66,459l-18.58-18.55l0.31-0.32c5.42-8.45,7.95-19.24,7.83-29.64c-0.36-23.4-13.62-46.54-43.27-46.54
				c-29.65,0-43.51,23.79-43.39,47.58c0.12,23.66,13.38,47.19,43.39,47.19c9.16,0,16.96-2.19,23.23-6.28l6.69,6.69L187.66,459z
				 M133.95,442.86c-18.32,0-27.48-15.99-27.72-30.94c-0.24-15.34,7.83-32.5,27.72-32.5c19.89,0,27,15.86,27.6,30.55
				c0.25,6.41-1.16,13.1-4.21,18.76l-10.51-10.49l-11.33,12.52l9.72,9.72C141.96,442,138.21,442.86,133.95,442.86z"/>
		</g>
	</g>
</g>
</svg>
